# xmcd
#
# Track frame offsets:
#	150
#	23550
#	51637
#	75730
#	94630
#	118707
#	141520
#
# Disc length: 2239 seconds
#
# Revision: 1
# Processed by: cddbd v1.5PL3 Copyright (c) Steve Scherf et al.
# Submitted via: CDex 1.50Beta5
#
DISCID=5b08bd07
DTITLE=江口洋介 - LOVE SONGS
DYEAR=1992
DGENRE=Rock
TTITLE0=100万ドルの赤いバラ
TTITLE1=青い夜の底で
TTITLE2=恋をした夜は
TTITLE3=海
TTITLE4=空を見上げて
TTITLE5=強くなれ
TTITLE6=言葉にならないLOVE SONG
EXTD=
EXTT0=
EXTT1=
EXTT2=
EXTT3=
EXTT4=
EXTT5=
EXTT6=
PLAYORDER=
